<svg xmlns="http://www.w3.org/2000/svg" xmlns:xlink="http://www.w3.org/1999/xlink" width="2000" zoomAndPan="magnify" viewBox="0 0 1500 1499.999933" height="2000" preserveAspectRatio="xMidYMid meet" version="1.0"><defs><g/><clipPath id="95241eca6f"><rect x="0" width="941" y="0" height="274"/></clipPath><clipPath id="b824863a55"><rect x="0" width="1243" y="0" height="1391"/></clipPath></defs><rect x="-150" width="1800" fill="#155c29" y="-149.999993" height="1799.99992" fill-opacity="1"/><rect x="-150" width="1800" fill="#155c29" y="-149.999993" height="1799.99992" fill-opacity="1"/><g transform="matrix(1, 0, 0, 1, 254, 894)"><g clip-path="url(#95241eca6f)"><g fill="#d5be60" fill-opacity="1"><g transform="translate(2.582045, 224.189957)"><g><path d="M 3.359375 0 L 3.359375 -1.125 C 7.972656 -1.71875 11.957031 -2.796875 15.3125 -4.359375 C 18.664062 -5.921875 20.34375 -8.71875 20.34375 -12.75 L 20.34375 -143.75 C 20.34375 -147.769531 18.664062 -150.5625 15.3125 -152.125 C 11.957031 -153.695312 7.972656 -154.78125 3.359375 -155.375 L 3.359375 -156.5 L 67.96875 -156.5 L 67.96875 -155.375 C 63.34375 -154.78125 59.351562 -153.695312 56 -152.125 C 52.644531 -150.5625 50.96875 -147.769531 50.96875 -143.75 L 50.96875 -12.75 C 50.96875 -8.71875 52.644531 -5.921875 56 -4.359375 C 59.351562 -2.796875 63.34375 -1.71875 67.96875 -1.125 L 67.96875 0 Z M 3.359375 0 "/></g></g></g><g fill="#d5be60" fill-opacity="1"><g transform="translate(73.896903, 224.189957)"><g><path d="M 156.046875 -156.5 L 141.734375 -110.4375 L 140.84375 -110.4375 C 141.882812 -120.570312 140.835938 -128.769531 137.703125 -135.03125 C 134.578125 -141.289062 129.882812 -145.875 123.625 -148.78125 C 117.363281 -151.6875 110.0625 -153.140625 101.71875 -153.140625 L 93.21875 -153.140625 L 93.21875 -14.984375 C 93.21875 -9.910156 95.082031 -6.476562 98.8125 -4.6875 C 102.539062 -2.90625 107.832031 -1.71875 114.6875 -1.125 L 114.6875 0 L 41.140625 0 L 41.140625 -1.125 C 47.992188 -1.71875 53.28125 -2.90625 57 -4.6875 C 60.726562 -6.476562 62.59375 -9.910156 62.59375 -14.984375 L 62.59375 -153.140625 C 51.5625 -153.140625 42.429688 -151.648438 35.203125 -148.671875 C 27.984375 -145.691406 21.910156 -141.109375 16.984375 -134.921875 C 12.066406 -128.734375 7.445312 -120.570312 3.125 -110.4375 L 2.234375 -110.4375 L 9.609375 -156.5 Z M 156.046875 -156.5 "/></g></g></g><g fill="#d5be60" fill-opacity="1"><g transform="translate(232.175725, 224.189957)"><g><path d="M 275.203125 10.734375 L 276.09375 10.734375 C 274.3125 14.015625 271.519531 17.773438 267.71875 22.015625 C 263.914062 26.265625 258.992188 30.363281 252.953125 34.3125 C 246.921875 38.257812 239.617188 41.5 231.046875 44.03125 C 222.484375 46.570312 212.613281 47.84375 201.4375 47.84375 C 183.695312 47.84375 168.046875 43.816406 154.484375 35.765625 C 140.921875 27.722656 128.328125 15.800781 116.703125 0 C 113.722656 1.039062 110.40625 1.820312 106.75 2.34375 C 103.101562 2.863281 99.34375 3.125 95.46875 3.125 C 83.539062 3.125 72.394531 1.265625 62.03125 -2.453125 C 51.675781 -6.179688 42.625 -11.582031 34.875 -18.65625 C 27.125 -25.738281 21.050781 -34.3125 16.65625 -44.375 C 12.257812 -54.4375 10.0625 -65.726562 10.0625 -78.25 C 10.0625 -90.769531 12.257812 -102.054688 16.65625 -112.109375 C 21.050781 -122.171875 27.160156 -130.742188 34.984375 -137.828125 C 42.804688 -144.910156 51.972656 -150.3125 62.484375 -154.03125 C 72.992188 -157.757812 84.359375 -159.625 96.578125 -159.625 C 109.097656 -159.625 120.570312 -157.722656 131 -153.921875 C 141.4375 -150.117188 150.53125 -144.710938 158.28125 -137.703125 C 166.03125 -130.703125 172.03125 -122.46875 176.28125 -113 C 180.53125 -103.539062 182.65625 -93.070312 182.65625 -81.59375 C 182.65625 -75.9375 182.09375 -70.085938 180.96875 -64.046875 C 179.851562 -58.015625 177.84375 -52.164062 174.9375 -46.5 C 172.03125 -40.832031 167.96875 -35.765625 162.75 -31.296875 C 157.53125 -26.828125 150.828125 -23.398438 142.640625 -21.015625 L 141.734375 -22.578125 C 143.378906 -23.472656 144.910156 -25.820312 146.328125 -29.625 C 147.742188 -33.425781 148.859375 -38.15625 149.671875 -43.8125 C 150.492188 -49.476562 150.90625 -55.367188 150.90625 -61.484375 C 150.90625 -73.398438 149.414062 -84.945312 146.4375 -96.125 C 143.457031 -107.3125 139.207031 -117.375 133.6875 -126.3125 C 128.175781 -135.25 121.582031 -142.363281 113.90625 -147.65625 C 106.226562 -152.945312 97.617188 -155.59375 88.078125 -155.59375 C 78.691406 -155.59375 70.570312 -152.984375 63.71875 -147.765625 C 56.863281 -142.554688 51.609375 -135.253906 47.953125 -125.859375 C 44.304688 -116.472656 42.484375 -105.59375 42.484375 -93.21875 C 42.484375 -83.832031 43.597656 -74.484375 45.828125 -65.171875 C 48.066406 -55.859375 51.234375 -47.101562 55.328125 -38.90625 C 59.429688 -30.707031 64.3125 -23.625 69.96875 -17.65625 C 70.269531 -19.75 71.050781 -21.6875 72.3125 -23.46875 C 73.582031 -25.257812 74.960938 -26.898438 76.453125 -28.390625 L 103.28125 -55.21875 C 105.375 -55.96875 107.757812 -55.929688 110.4375 -55.109375 C 113.125 -54.285156 116.550781 -51.046875 120.71875 -45.390625 L 146.203125 -9.609375 C 156.785156 4.992188 168.597656 16.691406 181.640625 25.484375 C 194.679688 34.273438 208.429688 38.671875 222.890625 38.671875 C 231.835938 38.671875 240.96875 36.617188 250.28125 32.515625 C 259.59375 28.421875 267.898438 21.160156 275.203125 10.734375 Z M 105.75 -0.890625 C 107.382812 -0.890625 109.019531 -1 110.65625 -1.21875 C 112.300781 -1.445312 113.867188 -1.710938 115.359375 -2.015625 L 114.015625 -3.796875 L 103.28125 -19.21875 C 99.5625 -24.59375 96.429688 -28.320312 93.890625 -30.40625 C 91.359375 -32.488281 89.160156 -33.378906 87.296875 -33.078125 C 85.429688 -32.785156 83.382812 -31.671875 81.15625 -29.734375 C 76.382812 -25.410156 74.816406 -20.9375 76.453125 -16.3125 C 78.097656 -11.695312 81.378906 -8.125 86.296875 -5.59375 L 86.078125 -5.59375 C 92.179688 -2.457031 98.738281 -0.890625 105.75 -0.890625 Z M 105.75 -0.890625 "/></g></g></g><g fill="#d5be60" fill-opacity="1"><g transform="translate(406.9978, 224.189957)"><g><path d="M 158.953125 -28.171875 C 161.640625 -21.316406 164.023438 -15.988281 166.109375 -12.1875 C 168.191406 -8.382812 170.390625 -5.660156 172.703125 -4.015625 C 175.015625 -2.378906 177.804688 -1.335938 181.078125 -0.890625 L 181.078125 0 L 110.4375 0 L 110.4375 -0.890625 C 115.65625 -1.335938 119.976562 -2.34375 123.40625 -3.90625 C 126.832031 -5.476562 128.992188 -8.050781 129.890625 -11.625 C 130.785156 -15.195312 129.890625 -20.265625 127.203125 -26.828125 L 122.734375 -38 L 37.328125 -38 L 32.421875 -26.828125 C 29.585938 -20.421875 28.539062 -15.503906 29.28125 -12.078125 C 30.03125 -8.648438 31.894531 -6.148438 34.875 -4.578125 C 37.851562 -3.015625 41.429688 -1.785156 45.609375 -0.890625 L 45.609375 0 L 4.46875 0 L 4.46875 -0.890625 C 7.601562 -1.785156 10.398438 -3.050781 12.859375 -4.6875 C 15.316406 -6.332031 17.695312 -8.867188 20 -12.296875 C 22.3125 -15.722656 24.8125 -20.640625 27.5 -27.046875 L 76.453125 -139.953125 L 76.015625 -146.4375 L 80.265625 -148.890625 L 106.640625 -162.984375 C 106.640625 -162.378906 106.898438 -161.070312 107.421875 -159.0625 C 107.941406 -157.050781 109.394531 -153.140625 111.78125 -147.328125 Z M 38.90625 -42.03125 L 121.171875 -42.03125 L 81.59375 -140.625 Z M 38.90625 -42.03125 "/></g></g></g><g fill="#d5be60" fill-opacity="1"><g transform="translate(590.315077, 224.189957)"><g><path d="M 158.953125 -28.171875 C 161.640625 -21.316406 164.023438 -15.988281 166.109375 -12.1875 C 168.191406 -8.382812 170.390625 -5.660156 172.703125 -4.015625 C 175.015625 -2.378906 177.804688 -1.335938 181.078125 -0.890625 L 181.078125 0 L 110.4375 0 L 110.4375 -0.890625 C 115.65625 -1.335938 119.976562 -2.34375 123.40625 -3.90625 C 126.832031 -5.476562 128.992188 -8.050781 129.890625 -11.625 C 130.785156 -15.195312 129.890625 -20.265625 127.203125 -26.828125 L 122.734375 -38 L 37.328125 -38 L 32.421875 -26.828125 C 29.585938 -20.421875 28.539062 -15.503906 29.28125 -12.078125 C 30.03125 -8.648438 31.894531 -6.148438 34.875 -4.578125 C 37.851562 -3.015625 41.429688 -1.785156 45.609375 -0.890625 L 45.609375 0 L 4.46875 0 L 4.46875 -0.890625 C 7.601562 -1.785156 10.398438 -3.050781 12.859375 -4.6875 C 15.316406 -6.332031 17.695312 -8.867188 20 -12.296875 C 22.3125 -15.722656 24.8125 -20.640625 27.5 -27.046875 L 76.453125 -139.953125 L 76.015625 -146.4375 L 80.265625 -148.890625 L 106.640625 -162.984375 C 106.640625 -162.378906 106.898438 -161.070312 107.421875 -159.0625 C 107.941406 -157.050781 109.394531 -153.140625 111.78125 -147.328125 Z M 38.90625 -42.03125 L 121.171875 -42.03125 L 81.59375 -140.625 Z M 38.90625 -42.03125 "/></g></g></g><g fill="#d5be60" fill-opacity="1"><g transform="translate(773.632354, 224.189957)"><g><path d="M 122.734375 -156.5 L 160.96875 -156.5 L 160.96875 -155.375 C 157.988281 -155.070312 155.191406 -154.210938 152.578125 -152.796875 C 149.972656 -151.390625 147.882812 -148.335938 146.3125 -143.640625 C 144.75 -138.941406 143.96875 -131.523438 143.96875 -121.390625 L 143.96875 -37.109375 C 143.96875 -25.484375 144.117188 -16.425781 144.421875 -9.9375 C 144.722656 -3.457031 144.945312 1.789062 145.09375 5.8125 L 144.640625 6.265625 L 27.046875 -133.46875 L 27.046875 -39.578125 C 27.046875 -29.441406 27.828125 -21.648438 29.390625 -16.203125 C 30.960938 -10.765625 33.050781 -7 35.65625 -4.90625 C 38.269531 -2.820312 41.066406 -1.5625 44.046875 -1.125 L 44.046875 0 L 5.59375 0 L 5.59375 -1.125 C 8.71875 -1.5625 11.546875 -2.453125 14.078125 -3.796875 C 16.617188 -5.140625 18.671875 -8.15625 20.234375 -12.84375 C 21.796875 -17.539062 22.578125 -24.957031 22.578125 -35.09375 L 22.578125 -138.828125 C 18.847656 -143.304688 15.414062 -146.921875 12.28125 -149.671875 C 9.15625 -152.429688 5.804688 -154.707031 2.234375 -156.5 L 47.171875 -156.5 C 47.921875 -155.445312 48.851562 -154.210938 49.96875 -152.796875 C 51.082031 -151.390625 52.382812 -149.492188 53.875 -147.109375 L 139.71875 -45.828125 L 139.71875 -116.921875 C 139.71875 -127.054688 138.9375 -134.84375 137.375 -140.28125 C 135.8125 -145.726562 133.765625 -149.53125 131.234375 -151.6875 C 128.703125 -153.84375 125.867188 -155.070312 122.734375 -155.375 Z M 122.734375 -156.5 "/></g></g></g></g></g><g transform="matrix(1, 0, 0, 1, 159, 0.000000000000112861)"><g clip-path="url(#b824863a55)"><g fill="#d5be60" fill-opacity="1"><g transform="translate(1.657582, 906.451556)"><g><path d="M 368.546875 -193.671875 C 368.546875 -141.335938 351.15625 -98.71875 316.375 -65.8125 C 281.582031 -32.90625 236.765625 -16.453125 181.921875 -16.453125 C 139.296875 -16.453125 106.3125 -26.867188 82.96875 -47.703125 C 59.625 -68.546875 47.953125 -97.929688 47.953125 -135.859375 C 47.953125 -167.503906 62.523438 -213.726562 91.671875 -274.53125 L 100.125 -270.296875 C 81.007812 -228.929688 71.453125 -196.65625 71.453125 -173.46875 C 71.453125 -148.394531 82.109375 -127.082031 103.421875 -109.53125 C 124.421875 -92.289062 150.585938 -83.671875 181.921875 -83.671875 C 226.109375 -83.671875 264.8125 -92.289062 298.03125 -109.53125 C 331.5625 -127.082031 348.328125 -147.296875 348.328125 -170.171875 C 348.328125 -200.878906 328.113281 -258.382812 287.6875 -342.6875 C 287.6875 -350.519531 294.113281 -368.695312 306.96875 -397.21875 L 308.84375 -397.21875 C 348.644531 -336.425781 368.546875 -268.578125 368.546875 -193.671875 Z M 225.171875 -447.515625 L 193.671875 -397.6875 L 147.140625 -430.125 L 178.15625 -482.3125 Z M 225.171875 -447.515625 "/></g></g></g><g fill="#d5be60" fill-opacity="1"><g transform="translate(410.630995, 906.451556)"><g><path d="M 235.046875 -86.5 C 235.046875 -82.738281 233.007812 -79.289062 228.9375 -76.15625 C 224.863281 -73.019531 220.003906 -70.273438 214.359375 -67.921875 C 208.710938 -65.578125 202.988281 -63.773438 197.1875 -62.515625 C 191.394531 -61.265625 186.773438 -60.640625 183.328125 -60.640625 C 167.035156 -60.640625 152.617188 -61.734375 140.078125 -63.921875 C 127.546875 -66.117188 116.890625 -70.429688 108.109375 -76.859375 C 99.335938 -83.285156 92.363281 -92.375 87.1875 -104.125 C 82.019531 -115.875 78.65625 -131.148438 77.09375 -149.953125 C 75.53125 -165.941406 73.101562 -188.898438 69.8125 -218.828125 C 66.519531 -248.753906 62.207031 -286.59375 56.875 -332.34375 C 47.476562 -410.695312 42.78125 -453.945312 42.78125 -462.09375 C 42.78125 -474.625 54.0625 -494.523438 76.625 -521.796875 L 106.703125 -180.984375 C 107.960938 -166.878906 110.941406 -155.675781 115.640625 -147.375 C 120.335938 -139.070312 126.679688 -132.644531 134.671875 -128.09375 C 142.671875 -123.550781 152.3125 -120.648438 163.59375 -119.390625 C 174.875 -118.140625 187.722656 -117.515625 202.140625 -117.515625 C 205.273438 -117.515625 208.800781 -117.046875 212.71875 -116.109375 C 216.632812 -115.171875 220.238281 -113.914062 223.53125 -112.34375 C 226.820312 -110.78125 229.5625 -108.742188 231.75 -106.234375 C 233.945312 -103.734375 235.046875 -100.914062 235.046875 -97.78125 Z M 235.046875 -86.5 "/></g></g></g><g fill="#d5be60" fill-opacity="1"><g transform="translate(608.066425, 906.451556)"><g><path d="M 248.203125 -462.09375 L 218.59375 -408.96875 L 169.234375 -441.875 L 140.5625 -398.625 L 89.3125 -433.421875 L 118.46875 -482.3125 L 172.515625 -449.40625 L 198.375 -495.9375 Z M 322.484375 -85.5625 C 322.484375 -81.164062 320.914062 -77.476562 317.78125 -74.5 C 314.644531 -71.53125 310.566406 -68.945312 305.546875 -66.75 C 300.535156 -64.5625 295.050781 -62.992188 289.09375 -62.046875 C 283.144531 -61.109375 277.191406 -60.640625 271.234375 -60.640625 C 243.972656 -60.640625 219.765625 -63.769531 198.609375 -70.03125 C 177.453125 -76.300781 157.472656 -86.019531 138.671875 -99.1875 C 127.390625 -91.039062 115.164062 -84.457031 102 -79.4375 C 88.84375 -74.425781 75.523438 -70.507812 62.046875 -67.6875 C 48.578125 -64.875 35.335938 -62.992188 22.328125 -62.046875 C 9.328125 -61.109375 -2.816406 -60.640625 -14.109375 -60.640625 L 4.703125 -117.515625 C 11.597656 -117.515625 19.117188 -117.671875 27.265625 -117.984375 C 35.410156 -118.304688 43.398438 -119.09375 51.234375 -120.34375 C 59.066406 -121.59375 66.429688 -123.234375 73.328125 -125.265625 C 80.222656 -127.304688 86.019531 -130.050781 90.71875 -133.5 C 89.15625 -137.570312 87.90625 -141.644531 86.96875 -145.71875 C 86.03125 -149.800781 85.5625 -152.9375 85.5625 -155.125 C 85.5625 -177.375 92.609375 -200.722656 106.703125 -225.171875 C 140.867188 -284.398438 171.425781 -314.015625 198.375 -314.015625 C 211.539062 -314.015625 222.976562 -303.988281 232.6875 -283.9375 C 237.394531 -274.21875 241 -264.5 243.5 -254.78125 C 246.007812 -245.070312 247.265625 -234.890625 247.265625 -224.234375 C 247.265625 -198.535156 234.101562 -168.132812 207.78125 -133.03125 C 216.863281 -127.707031 228.769531 -123.789062 243.5 -121.28125 C 258.226562 -118.769531 273.742188 -117.515625 290.046875 -117.515625 C 294.117188 -117.515625 298.113281 -116.890625 302.03125 -115.640625 C 305.945312 -114.390625 309.394531 -112.820312 312.375 -110.9375 C 315.351562 -109.0625 317.78125 -107.023438 319.65625 -104.828125 C 321.539062 -102.628906 322.484375 -100.4375 322.484375 -98.25 Z M 222.34375 -198.375 C 222.34375 -208.71875 218.113281 -218.90625 209.65625 -228.9375 C 200.257812 -239.90625 189.757812 -245.390625 178.15625 -245.390625 C 165.3125 -245.390625 151.523438 -240.375 136.796875 -230.34375 C 122.691406 -220.3125 115.640625 -211.535156 115.640625 -204.015625 C 115.640625 -187.410156 129.113281 -172.054688 156.0625 -157.953125 C 200.25 -172.054688 222.34375 -185.53125 222.34375 -198.375 Z M 222.34375 -198.375 "/></g></g></g><g fill="#d5be60" fill-opacity="1"><g transform="translate(892.937578, 906.451556)"><g><path d="M 175.34375 -408.96875 L 144.3125 -360.078125 L 95.421875 -392.984375 L 63.46875 -351.625 L 16.453125 -384.0625 L 47.953125 -433.421875 L 97.3125 -401.453125 L 128.796875 -441.875 Z M 124.109375 -186.625 C 124.109375 -159.675781 120.582031 -137.894531 113.53125 -121.28125 C 106.476562 -104.675781 96.835938 -91.90625 84.609375 -82.96875 C 72.390625 -74.039062 57.816406 -68.085938 40.890625 -65.109375 C 23.972656 -62.128906 5.640625 -60.640625 -14.109375 -60.640625 L 4.703125 -117.515625 C 18.179688 -117.515625 31.734375 -118.140625 45.359375 -119.390625 C 58.992188 -120.648438 70.195312 -123.316406 78.96875 -127.390625 C 94.957031 -134.910156 102.953125 -143.53125 102.953125 -153.25 C 102.953125 -158.257812 101.382812 -163.273438 98.25 -168.296875 L 78.03125 -201.203125 C 73.644531 -208.410156 71.453125 -215.144531 71.453125 -221.40625 C 71.453125 -227.988281 73.332031 -234.101562 77.09375 -239.75 L 101.53125 -277.34375 L 103.890625 -277.34375 C 117.367188 -247.570312 124.109375 -217.332031 124.109375 -186.625 Z M 124.109375 -186.625 "/></g></g></g><g fill="#d5be60" fill-opacity="1"><g transform="translate(1071.099565, 906.451556)"><g><path d="M 106.234375 -178.15625 C 106.234375 -149.644531 97.929688 -110.472656 81.328125 -60.640625 L 71.921875 -63.46875 C 75.679688 -88.53125 77.5625 -105.609375 77.5625 -114.703125 C 77.5625 -138.203125 75.679688 -164.210938 71.921875 -192.734375 L 47.953125 -375.125 C 45.128906 -396.4375 43.71875 -412.265625 43.71875 -422.609375 C 43.71875 -447.367188 54.0625 -480.429688 74.75 -521.796875 C 75.375 -471.023438 77.566406 -431.222656 81.328125 -402.390625 L 100.59375 -248.203125 C 104.351562 -218.117188 106.234375 -194.769531 106.234375 -178.15625 Z M 155.125 63.46875 C 153.25 72.238281 151.679688 78.035156 150.421875 80.859375 C 147.609375 88.378906 143.847656 92.765625 139.140625 94.015625 L 9.40625 131.15625 C 12.21875 119.25 16.757812 110.785156 23.03125 105.765625 C 28.363281 101.066406 39.644531 95.582031 56.875 89.3125 C 36.195312 79.289062 25.859375 67.070312 25.859375 52.65625 C 25.859375 46.070312 28.519531 39.175781 33.84375 31.96875 C 60.800781 -5.007812 86.34375 -23.5 110.46875 -23.5 C 126.769531 -23.5 134.921875 -14.722656 134.921875 2.828125 C 134.921875 10.660156 130.375 21.3125 121.28125 34.78125 C 105.300781 24.445312 92.609375 19.28125 83.203125 19.28125 C 74.429688 19.28125 63.929688 24.445312 51.703125 34.78125 C 76.773438 58.289062 99.03125 70.046875 118.46875 70.046875 C 126.300781 70.046875 138.519531 67.851562 155.125 63.46875 Z M 155.125 63.46875 "/></g></g></g></g></g></svg>