<svg xmlns="http://www.w3.org/2000/svg" viewBox="0 0 36 36.000001">
  <defs>
    <clipPath id="fi-clip-1"><path d="M 5.558594 9 L 27 9 L 27 29.882812 L 5.558594 29.882812 Z M 5.558594 9 " clip-rule="nonzero"/></clipPath>
    <clipPath id="fi-clip-2"><path d="M 19 5.070312 L 30.367188 5.070312 L 30.367188 17 L 19 17 Z M 19 5.070312 " clip-rule="nonzero"/></clipPath>
    <style>
      .pen { fill: #9CA3AF; }
    </style>
  </defs>
  <g>
    <g clip-path="url(#fi-clip-1)">
      <path class="pen" fill-rule="nonzero" d="M 21.8125 23.089844 L 26.257812 15.90625 L 22.902344 12.546875 L 19.546875 9.191406 L 12.359375 13.636719 C 11.65625 14.078125 11.144531 14.746094 10.933594 15.535156 C 9.335938 21.492188 7.070312 26.238281 5.664062 28.855469 C 5.59375 28.996094 5.558594 29.136719 5.574219 29.277344 L 14.835938 20.015625 C 14.535156 19.453125 14.605469 18.734375 15.082031 18.257812 C 15.660156 17.679688 16.59375 17.679688 17.171875 18.257812 C 17.753906 18.839844 17.753906 19.769531 17.171875 20.351562 C 16.699219 20.824219 15.976562 20.914062 15.414062 20.597656 L 6.171875 29.855469 C 6.3125 29.875 6.453125 29.855469 6.59375 29.769531 C 9.195312 28.363281 13.957031 26.097656 19.914062 24.496094 C 20.703125 24.304688 21.390625 23.792969 21.8125 23.089844 Z M 21.8125 23.089844 "/>
    </g>
    <g clip-path="url(#fi-clip-2)">
      <path class="pen" fill-rule="nonzero" d="M 27.75 16.183594 L 19.265625 7.699219 C 18.964844 7.398438 18.964844 6.90625 19.265625 6.609375 L 20.492188 5.378906 C 20.792969 5.082031 21.285156 5.082031 21.582031 5.378906 L 30.070312 13.867188 C 30.367188 14.164062 30.367188 14.65625 30.070312 14.957031 L 28.839844 16.183594 C 28.542969 16.484375 28.050781 16.484375 27.75 16.183594 Z M 27.75 16.183594 "/>
    </g>
  </g>
</svg>
